<svg width="25" height="14" viewBox="0 0 25 14" fill="none" xmlns="http://www.w3.org/2000/svg">
<path d="M24.5 7.00304C24.498 7.26206 24.3954 7.51018 24.214 7.69504L24.208 7.70704L18.208 13.707C18.0194 13.8892 17.7668 13.99 17.5046 13.9877C17.2424 13.9854 16.9916 13.8803 16.8062 13.6949C16.6208 13.5095 16.5156 13.2586 16.5133 12.9964C16.511 12.7342 16.6118 12.4816 16.794 12.293L21.086 7.99904H1.5C1.23478 7.99904 0.980429 7.89368 0.792892 7.70615C0.605356 7.51861 0.5 7.26426 0.5 6.99904C0.5 6.73382 0.605356 6.47947 0.792892 6.29193C0.980429 6.1044 1.23478 5.99904 1.5 5.99904H21.086L16.794 1.70704C16.6118 1.51844 16.511 1.26584 16.5133 1.00364C16.5156 0.741443 16.6208 0.49063 16.8062 0.305222C16.9916 0.119814 17.2424 0.0146453 17.5046 0.0123669C17.7668 0.0100885 18.0194 0.110883 18.208 0.293041L24.208 6.29304L24.214 6.30304C24.303 6.39324 24.3737 6.49989 24.422 6.61704C24.4735 6.73782 24.5 6.86775 24.5 6.99904V7.00304Z" fill="white"/>
</svg>
